<svg width="253" height="85" viewBox="0 0 253 85" fill="none" xmlns="http://www.w3.org/2000/svg">
<path d="M251.319 50.1366C241.316 57.0397 217.812 63.2405 184.83 65.1944C156.477 66.874 151.315 64.9373 122.207 65.1944C80.1981 65.5654 56.1358 64.902 41.4155 62.6838C29.3605 60.8671 11.2636 56.9824 8.94422 54.5437C7.78051 53.3202 1.52675 48.405 1.2132 46.0967C-0.333285 34.7115 6.69455 26.0445 17.0622 21.1232C28.7345 15.5825 66.1556 8.95623 79.2988 6.06551C89.1589 3.89686 118.566 2.75982 135.737 1.29076C147.768 0.261443 166.786 2.23963 182.125 2.96681C227.727 5.12872 239.659 12.5733 248.179 21.1232C252.339 25.298 252.603 33.9848 251.319 36.9155C249.526 39.8463 238.424 48.7294 235.083 50.1366C135.251 92.1946 122.207 83.1907 99.5148 83.1907" stroke="#050505" stroke-width="2" stroke-linecap="round"/>
</svg>
