<svg width="26" height="25" viewBox="0 0 26 25" fill="none" xmlns="http://www.w3.org/2000/svg">
<path d="M19.1719 0.768555C22.6235 0.768734 25.4219 3.56689 25.4219 7.01855C25.4219 7.78091 25.2841 8.51103 25.0342 9.18652C22.9897 15.8895 13.6519 24.2648 13.627 24.2871C13.575 24.2455 4.02024 16.5764 1.2041 10.0479C0.705868 9.15048 0.421875 8.11772 0.421875 7.01855C0.421875 3.56678 3.2201 0.768555 6.67188 0.768555C10.1237 0.768555 12.9219 3.56678 12.9219 7.01855C12.9219 7.08851 12.9193 7.15814 12.917 7.22754H12.9268C12.9245 7.15814 12.9219 7.08851 12.9219 7.01855C12.9219 3.56678 15.7201 0.768555 19.1719 0.768555Z" fill="black"/>
</svg>
