<svg width="144" height="140" viewBox="0 0 144 140" fill="none" xmlns="http://www.w3.org/2000/svg">
<path d="M80.1257 60.8783C79.5876 58.457 77.9892 50.1033 88.6309 49.0206C101.933 47.6673 111.167 56.3256 125.652 51.1522C137.241 47.0134 138.669 37.9013 139.792 34.2771" stroke="#0D0D0D" stroke-width="2"/>
<rect x="18.8599" y="44.4707" width="114.441" height="62.7581" transform="rotate(17.2161 18.8599 44.4707)" fill="black"/>
<rect x="22.5987" y="44.0996" width="112.441" height="60.1428" transform="rotate(17.2161 22.5987 44.0996)" fill="white" stroke="black" stroke-width="2"/>
<rect x="31.2271" y="58.6089" width="11.075" height="9.84441" rx="3" transform="rotate(17.2161 31.2271 58.6089)" fill="#21A0AA"/>
<rect x="26.8975" y="74.6597" width="11.075" height="9.84441" rx="3" transform="rotate(17.2161 26.8975 74.6597)" fill="#21A0AA"/>
<rect x="49.4463" y="64.2542" width="11.075" height="9.84441" rx="3" transform="rotate(17.2161 49.4463 64.2542)" fill="#21A0AA"/>
<rect x="49.4463" y="64.2542" width="11.075" height="9.84441" rx="3" transform="rotate(17.2161 49.4463 64.2542)" fill="#21A0AA"/>
<rect x="49.4463" y="64.2542" width="11.075" height="9.84441" rx="3" transform="rotate(17.2161 49.4463 64.2542)" fill="#21A0AA"/>
<rect x="45.1167" y="80.3052" width="11.075" height="9.84441" rx="3" transform="rotate(17.2161 45.1167 80.3052)" fill="#21A0AA"/>
<rect x="67.6646" y="69.8997" width="11.075" height="9.84441" rx="3" transform="rotate(17.2161 67.6646 69.8997)" fill="#21A0AA"/>
<rect x="63.3354" y="85.9504" width="11.075" height="9.84441" rx="3" transform="rotate(17.2161 63.3354 85.9504)" fill="#21A0AA"/>
<rect x="85.8838" y="75.5449" width="11.075" height="9.84441" rx="3" transform="rotate(17.2161 85.8838 75.5449)" fill="#21A0AA"/>
<rect x="81.5547" y="91.5955" width="11.075" height="9.84441" rx="3" transform="rotate(17.2161 81.5547 91.5955)" fill="#21A0AA"/>
<rect x="104.103" y="81.1902" width="11.075" height="9.84441" rx="3" transform="rotate(17.2161 104.103 81.1902)" fill="#21A0AA"/>
<rect x="99.7734" y="97.2412" width="11.075" height="9.84441" rx="3" transform="rotate(17.2161 99.7734 97.2412)" fill="#21A0AA"/>
<rect x="41.9629" y="96.7195" width="41.8387" height="9.84441" rx="4.9222" transform="rotate(17.2161 41.9629 96.7195)" fill="#21A0AA"/>
</svg>
