<svg width="128" height="115" viewBox="0 0 128 115" fill="none" xmlns="http://www.w3.org/2000/svg">
<path d="M104.968 22.3233L94.6928 24.5923L93.6221 19.935C92.9266 16.9098 90.2441 14.9133 87.626 15.4914L32.2878 27.7117L31.621 24.8113C31.621 24.8113 30.6243 20.4763 27.9076 21.0762C25.1909 21.6762 3.47527 26.4716 3.47527 26.4716C3.47527 26.4716 0.995157 28.1007 1.70979 31.209C2.42203 34.3069 4.44402 43.1017 4.44402 43.1017L20.3404 112.244C20.369 112.369 20.4157 112.489 20.4599 112.6C20.5118 113.604 21.2895 114.241 22.2488 114.029L22.6433 113.942L104.996 95.7559L106.027 95.5282C108.322 95.0214 109.797 92.7076 109.652 90.1072C109.656 89.9642 109.69 89.8255 109.689 89.6949L109.654 26.3133C109.665 23.5362 107.559 21.751 104.968 22.3233Z" fill="#081832"/>
<path d="M30.2326 18.8562C30.477 18.8022 30.6663 18.8524 30.8668 18.9952C31.0983 19.1601 31.3326 19.4467 31.5487 19.8256C31.9779 20.5781 32.1778 21.4117 32.1779 21.4118L33.1882 25.8059L89.9514 13.271C91.6392 12.8984 93.6394 14.1887 94.179 16.5356L110.061 85.6153C110.599 87.9545 109.364 89.9662 107.67 90.3404L25.2632 108.538L25.2608 108.528L24.2843 108.743C24.2279 108.756 24.1374 108.75 24.0254 108.668C23.9117 108.584 23.7967 108.431 23.747 108.215L5.11628 27.1797L5.08137 27.0104C4.81431 25.5074 5.69836 24.54 6.10876 24.1834L30.2326 18.8562Z" fill="#FFCF2D" stroke="#081832" stroke-width="2"/>
<mask id="path-3-inside-1_684_1335" fill="white">
<path d="M106.941 18.6096C109.533 18.0374 111.639 19.8229 111.636 22.598L111.672 85.9789C111.672 88.7643 109.573 91.478 106.982 92.0505L24.2345 110.324C23.2393 110.544 22.4318 109.859 22.4305 108.789L22.4 42.3145C22.4 42.1507 22.4117 41.9951 22.4207 41.8293C22.6416 39.2245 24.6523 36.7813 27.091 36.2427L106.941 18.6096Z"/>
</mask>
<path d="M106.941 18.6096C109.533 18.0374 111.639 19.8229 111.636 22.598L111.672 85.9789C111.672 88.7643 109.573 91.478 106.982 92.0505L24.2345 110.324C23.2393 110.544 22.4318 109.859 22.4305 108.789L22.4 42.3145C22.4 42.1507 22.4117 41.9951 22.4207 41.8293C22.6416 39.2245 24.6523 36.7813 27.091 36.2427L106.941 18.6096Z" fill="#FFCF2D"/>
<path d="M106.941 18.6096L107.373 20.5625L107.373 20.5625L106.941 18.6096ZM111.636 22.598L109.636 22.5961L109.636 22.5991L111.636 22.598ZM111.672 85.9789L113.672 85.9791L113.672 85.9778L111.672 85.9789ZM106.982 92.0505L107.413 94.0034L107.413 94.0034L106.982 92.0505ZM24.2345 110.324L24.6657 112.277L24.6657 112.277L24.2345 110.324ZM22.4305 108.789L20.4305 108.79L20.4305 108.791L22.4305 108.789ZM22.4 42.3145L20.4 42.3143L20.4 42.3154L22.4 42.3145ZM22.4207 41.8293L20.4279 41.6603L20.4253 41.6907L20.4236 41.7212L22.4207 41.8293ZM27.091 36.2427L26.6597 34.2898L26.6597 34.2898L27.091 36.2427ZM106.941 18.6096L107.373 20.5625C108.103 20.4012 108.628 20.5853 108.967 20.8732C109.316 21.1694 109.637 21.7229 109.636 22.5961L111.636 22.598L113.636 22.5999C113.638 20.698 112.907 18.9711 111.556 17.8239C110.195 16.6683 108.371 16.2458 106.51 16.6567L106.941 18.6096ZM111.636 22.598L109.636 22.5991L109.672 85.98L111.672 85.9789L113.672 85.9778L113.636 22.5969L111.636 22.598ZM111.672 85.9789L109.672 85.9787C109.672 87.891 108.163 89.7413 106.55 90.0975L106.982 92.0505L107.413 94.0034C110.983 93.2148 113.672 89.6376 113.672 85.9791L111.672 85.9789ZM106.982 92.0505L106.551 90.0975L23.8032 108.371L24.2345 110.324L24.6657 112.277L107.413 94.0034L106.982 92.0505ZM24.2345 110.324L23.8032 108.371C23.8261 108.366 23.8914 108.357 23.9848 108.379C24.0786 108.401 24.1739 108.447 24.2552 108.516C24.4301 108.665 24.4306 108.812 24.4305 108.787L22.4305 108.789L20.4305 108.791C20.4317 109.836 20.8366 110.86 21.6644 111.564C22.5026 112.277 23.6036 112.512 24.6657 112.277L24.2345 110.324ZM22.4305 108.789L24.4305 108.788L24.4 42.3136L22.4 42.3145L20.4 42.3154L20.4305 108.79L22.4305 108.789ZM22.4 42.3145L24.4 42.3147C24.4 42.2223 24.4059 42.1566 24.4178 41.9374L22.4207 41.8293L20.4236 41.7212C20.4176 41.8336 20.4001 42.0791 20.4 42.3143L22.4 42.3145ZM22.4207 41.8293L24.4136 41.9983C24.5676 40.1818 26.018 38.5279 27.5222 38.1957L27.091 36.2427L26.6597 34.2898C23.2865 35.0347 20.7155 38.2672 20.4279 41.6603L22.4207 41.8293ZM27.091 36.2427L27.5222 38.1957L107.373 20.5625L106.941 18.6096L106.51 16.6566L26.6597 34.2898L27.091 36.2427Z" fill="#081832" mask="url(#path-3-inside-1_684_1335)"/>
</svg>
