<svg width="102" height="131" viewBox="0 0 102 131" fill="none" xmlns="http://www.w3.org/2000/svg">
<path d="M65.1799 8.81125L18.2298 13.0403C16.6067 13.1865 15.2569 14.8161 15.2302 16.6617L13.638 126.555C13.6113 128.4 14.9173 129.791 16.5404 129.645L86.8327 123.313C88.4558 123.167 89.8056 121.537 89.8323 119.692L91.0402 36.3237L65.1799 8.81125Z" fill="#081832"/>
<path d="M70.7987 2.42418L23.8338 6.6546C22.2108 6.80079 20.8609 8.43039 20.8342 10.2759L19.242 120.169C19.2153 122.015 20.5213 123.405 22.1444 123.259L92.4368 116.927C94.0598 116.781 95.4096 115.151 95.4364 113.306L96.644 29.9548L70.7987 2.42418Z" fill="white" stroke="#081832" stroke-width="2" stroke-miterlimit="10" stroke-linejoin="round"/>
<path d="M70.7542 2.44421C70.1842 3.13226 69.8172 4.05337 69.8029 5.04325L69.4429 29.8909C69.4144 31.8538 70.7931 33.3214 72.5046 33.1673L94.3271 31.2016C95.1829 31.1245 95.9708 30.6514 96.5409 29.9466" stroke="#081832" stroke-width="2" stroke-miterlimit="10" stroke-linejoin="round"/>
<path d="M64.7219 80.1143C64.7219 80.1143 62.4959 79.1586 59.669 80.0165C59.1954 80.1597 58.721 80.3532 58.2162 80.6165C57.2363 81.1237 56.2233 81.8851 55.2349 82.9795L54.9651 83.2887L54.7099 83.6132C53.8086 84.8003 53.2019 85.9943 52.8169 87.1349C52.6171 87.7058 52.491 88.2701 52.38 88.8163C51.8024 92.0687 52.7835 94.5272 52.7835 94.5272C58.2431 104.189 72.1181 101.549 72.1181 101.549C72.1181 101.549 73.571 85.6843 64.7219 80.1143Z" fill="#F66633" stroke="#081832" stroke-width="2" stroke-miterlimit="10"/>
<path d="M35.2184 75.2317C23.4277 61.1466 4.95945 38.062 4.11069 34.603C3.33133 31.4394 3.65098 29.7183 3.92726 28.9561C4.59585 28.5775 6.0762 28.1091 8.91004 28.8089C12.0085 29.5519 33.4766 48.9984 46.6319 61.4526C44.8671 62.2315 42.4716 63.8212 39.7715 67.114C37.0421 70.3926 35.7933 73.186 35.2184 75.2317Z" fill="#F94F46" stroke="#081832" stroke-width="2" stroke-miterlimit="10"/>
<path d="M52.3796 88.8164C52.4759 88.2715 52.6165 87.7227 52.8166 87.135C53.2015 85.9944 53.8082 84.8004 54.7096 83.6133C54.7996 83.5047 54.8748 83.3974 54.9648 83.2887C55.0548 83.1801 55.1445 83.0882 55.2345 82.9796C56.2229 81.8852 57.236 81.1237 58.2159 80.6166C58.7059 80.3546 59.1948 80.1765 59.6684 80.0333C59.8057 77.6752 59.2954 74.2527 56.2786 70.922C54.8862 69.3886 51.2829 65.8593 46.6313 61.4527C44.8665 62.2316 42.471 63.8214 39.7709 67.1141C37.0415 70.3927 35.7927 73.1861 35.2178 75.2319C39.3897 80.2011 42.7231 84.0563 44.1602 85.5521C47.282 88.7561 50.327 89.1186 52.3796 88.8164Z" fill="#66B0F0" stroke="#081832" stroke-width="2" stroke-miterlimit="10"/>
</svg>
